
        <svg xmlns="http://www.w3.org/2000/svg" xmlns:xlink="http://www.w3.org/1999/xlink" version="1.1" width="3162.313432835821" 
        height="601.5356282400419" viewBox="0 0 3162.313432835821 601.5356282400419">
			
			<g transform="scale(8.115671641791044) translate(10, 10)">
				<defs id="SvgjsDefs1045"><linearGradient id="SvgjsLinearGradient1050"><stop id="SvgjsStop1051" stop-color="#51504f" offset="0"></stop><stop id="SvgjsStop1052" stop-color="#939598" offset="0.5"></stop><stop id="SvgjsStop1053" stop-color="#51504f" offset="1"></stop></linearGradient><linearGradient id="SvgjsLinearGradient1054"><stop id="SvgjsStop1055" stop-color="#616161" offset="0"></stop><stop id="SvgjsStop1056" stop-color="#e6e7e8" offset="0.5"></stop><stop id="SvgjsStop1057" stop-color="#616161" offset="1"></stop></linearGradient></defs><g id="SvgjsG1046" featureKey="symbolFeature-0" transform="matrix(0.6224584960799099,0,0,0.6224584960799099,-0.9505041842312156,-4.062796071008084)" fill="url(#SvgjsLinearGradient1050)"><title xmlns="http://www.w3.org/2000/svg">21</title><g xmlns="http://www.w3.org/2000/svg" data-name="Group"><path data-name="Compound Path" d="M94.5,49a4,4,0,1,0-3.9-5H67.2a16.5,16.5,0,0,0-2.4-6H82.6a4,4,0,1,0,0-2H63.3l-.3-.4V15.5H77.1a4,4,0,1,0,0-1.9H62a1,1,0,0,0-1,1V33.9a16.6,16.6,0,0,0-7.1-3.1,1,1,0,0,0,.1-.3V22.4a4,4,0,1,0-2,0v8.1H50.9a16.8,16.8,0,0,0-4.9.7V14.4a4,4,0,1,0-2,0V31.5a1,1,0,0,0,.1.5A16.5,16.5,0,0,0,38,36.7V22.4a4,4,0,1,0-2,0V37.5H12.5v-14h0a4,4,0,1,0-1.9,0h0v15a1,1,0,0,0,1,1H36.1l-.4.9a13.5,13.5,0,0,0-10.9,6.2H17.4a4,4,0,1,0,0,2h6.4a13.4,13.4,0,0,0-1.1,5.4c0,.2,0,.4,0,.6H9.4a4,4,0,1,0,0,2H22.8a13.5,13.5,0,0,0,2.8,6H17.4a4,4,0,1,0,0,2H27.7a13.5,13.5,0,0,0,8.4,3h0v15H21.9a4,4,0,1,0,0,1.9H37a1,1,0,0,0,1-1v-16h7V77.6a4,4,0,1,0,2,0V67.5h6V85.6a4,4,0,1,0,2,0V67.5h6V77.6a4,4,0,1,0,2,0V67.5h3.6A10.8,10.8,0,0,0,75.3,63H89.5V77h0a4,4,0,1,0,1.9,0h0V62a1,1,0,0,0-1-1h-14a10.7,10.7,0,0,0,.6-7h5.6a4,4,0,1,0,0-2H76.4a10.9,10.9,0,0,0-7.6-6H90.6A4,4,0,0,0,94.5,49Zm-8-14a2,2,0,1,1-2,2A2,2,0,0,1,86.5,35ZM81,12.5a2,2,0,1,1-2,2A2,2,0,0,1,81,12.5Zm-30,6a2,2,0,1,1,2,2A2,2,0,0,1,51,18.5Zm-8-8a2,2,0,1,1,2,2A2,2,0,0,1,43,10.5Zm-33.5,9a2,2,0,1,1,2,2A2,2,0,0,1,9.5,19.5Zm4,30a2,2,0,1,1,2-2A2,2,0,0,1,13.5,49.5Zm-8,8a2,2,0,1,1,2-2A2,2,0,0,1,5.5,57.5ZM18,85.5a2,2,0,1,1,2-2A2,2,0,0,1,18,85.5Zm30-4a2,2,0,1,1-2-2A2,2,0,0,1,48,81.5Zm8,8a2,2,0,1,1-2-2A2,2,0,0,1,56,89.5Zm8-8a2,2,0,1,1-2-2A2,2,0,0,1,64,81.5ZM92.5,81a2,2,0,1,1-2-2A2,2,0,0,1,92.5,81Zm-6-30a2,2,0,1,1-2,2A2,2,0,0,1,86.5,51Zm8-8a2,2,0,1,1-2,2A2,2,0,0,1,94.5,43ZM35,18.5a2,2,0,1,1,2,2A2,2,0,0,1,35,18.5Zm-21.5,47a2,2,0,1,1,2-2A2,2,0,0,1,13.5,65.5Zm61.9-8.9a8.9,8.9,0,0,1-8.8,8.8H36.1a11.5,11.5,0,1,1,0-23.1h.1a1,1,0,0,0,1.1-.6,14.7,14.7,0,0,1,28.3,5,1,1,0,0,0,1,1A8.9,8.9,0,0,1,75.4,56.6Z"></path></g></g><g id="SvgjsG1047" featureKey="nameFeature-0" transform="matrix(0.6157752198702248,0,0,0.6157752198702248,76.4400812215719,15.230281121974471)" fill="url(#SvgjsLinearGradient1054)"><path d="M7.2656 12.5 c0.9375 -2.2916 2.2916 -4.2447 4.0624 -5.8593 c1.6146 -1.6146 3.698 -2.9167 6.2501 -3.9063 s5.2344 -1.4844 8.0469 -1.4844 l8.6719 0 l0 5.9375 l-8.5938 0 c-2.0313 0 -3.8281 0.33852 -5.3906 1.0156 c-1.6666 0.67711 -3.0208 1.5625 -4.0624 2.6563 c-1.0938 1.0416 -1.9791 2.3958 -2.6563 4.0624 c-0.625 1.5104 -0.9375 3.2031 -0.9375 5.0781 s0.3125 3.5677 0.9375 5.0781 c0.625 1.5625 1.5104 2.9166 2.6563 4.0625 c1.0416 1.0416 2.3958 1.901 4.0624 2.5781 c1.6666 0.625 3.4635 0.9375 5.3906 0.9375 l8.5938 0 l0 5.9375 l-8.6719 0 c-2.9166 0 -5.5729 -0.46875 -7.9688 -1.4063 c-2.5 -1.0416 -4.6094 -2.3698 -6.3281 -3.9844 c-1.7709 -1.6666 -3.125 -3.6458 -4.0625 -5.9374 c-0.98961 -2.3959 -1.4844 -4.8438 -1.4844 -7.3438 c0 -2.6563 0.49477 -5.1302 1.4844 -7.4219 z M57.344 32.6562 c-0.78125 -0.15625 -1.5105 -0.3907 -2.1876 -0.7032 c-1.4584 -0.67711 -2.7344 -1.6146 -3.8281 -2.8125 c-1.0416 -1.0938 -1.875 -2.4479 -2.5 -4.0625 c-0.57289 -1.6146 -0.85938 -3.2552 -0.85938 -4.9219 l0 -0.15625 l0 -0.23438 c0 -1.7188 0.28648 -3.3854 0.85938 -5 c0.67711 -1.6666 1.5105 -2.9948 2.5001 -3.9844 c1.0416 -1.1979 2.2916 -2.1094 3.75 -2.7344 c0.88539 -0.41664 1.6406 -0.67703 2.2656 -0.78117 l0 -5.8594 c-1.8229 0.26039 -3.4375 0.70313 -4.8438 1.3281 c-2.2916 0.98961 -4.2448 2.3177 -5.8594 3.9844 s-2.8906 3.6458 -3.8281 5.9374 s-1.4063 4.6875 -1.4063 7.1875 l0 0.15625 l0 0.23438 c0 2.5521 0.46875 4.948 1.4063 7.1876 c0.83336 2.2396 2.0834 4.1927 3.75 5.8594 c1.6666 1.7188 3.6198 3.0469 5.8594 3.9844 c1.4063 0.625 3.0469 1.0677 4.9219 1.3281 l0 -5.9375 z M78.594 20 l0.000076294 -0.23438 c0 -2.5521 -0.46875 -4.948 -1.4063 -7.1876 c-0.9375 -2.2916 -2.2135 -4.2708 -3.8281 -5.9374 c-1.5625 -1.6666 -3.4896 -2.9688 -5.7813 -3.9063 c-1.3021 -0.625 -2.8906 -1.0677 -4.7656 -1.3281 l0 5.9375 l0.9375 0.3125 c0.46875 0.15625 0.83336 0.28648 1.0938 0.39063 c1.4584 0.67711 2.7344 1.6146 3.8281 2.8125 c1.0416 1.0938 1.875 2.4479 2.5 4.0625 c0.57289 1.6146 0.85938 3.2552 0.85938 4.9219 l0 0.15625 l0 0.23438 c0 1.7188 -0.28648 3.3854 -0.85938 5 c-0.67711 1.6666 -1.5105 2.9948 -2.5001 3.9844 c-1.0416 1.1979 -2.2916 2.1094 -3.75 2.7344 c-0.67711 0.3125 -1.3802 0.54688 -2.1094 0.70313 l0 5.9375 c1.5625 -0.20836 3.125 -0.65109 4.6875 -1.3282 c2.1354 -0.88539 4.0885 -2.2135 5.8594 -3.9844 c1.7188 -1.8229 2.9948 -3.802 3.8281 -5.9374 c0.9375 -2.2916 1.4063 -4.6875 1.4063 -7.1875 l0 -0.15625 z M112.813 27.344 c-0.98961 2.3959 -2.3438 4.375 -4.0625 5.9375 c-1.7709 1.6666 -3.8542 2.9688 -6.2501 3.9063 s-5.0781 1.4063 -8.0469 1.4063 l-8.6719 0 l0 -5.9375 l8.5938 0 c1.9791 0 3.776 -0.3125 5.3906 -0.9375 c1.5625 -0.625 2.9166 -1.5104 4.0625 -2.6563 s2.0313 -2.5 2.6563 -4.0625 s0.9375 -3.2813 0.9375 -5.1563 c0 -1.8229 -0.3125 -3.5156 -0.9375 -5.0781 c-0.625 -1.6146 -1.5104 -2.9427 -2.6563 -3.9844 c-1.0416 -1.0938 -2.3958 -1.9791 -4.0624 -2.6563 c-1.6666 -0.625 -3.4635 -0.9375 -5.3906 -0.9375 l-8.5938 0 l0 -5.9375 l8.6719 0 c2.7604 0 5.4166 0.49477 7.9688 1.4844 c2.3959 0.88539 4.5052 2.2135 6.3281 3.9844 c1.7709 1.6146 3.125 3.5938 4.0625 5.9375 c0.98961 2.3959 1.4844 4.8438 1.4844 7.3438 c0 2.7084 -0.49477 5.1563 -1.4844 7.3438 z M126.0938 1.4059999999999988 l27.813 0 l0 5.9375 l-27.813 0 l0 -5.9375 z M126.0938 32.6562 l27.734 0 l0 5.9375 l-27.734 0 l0 -5.9375 z M126.0938 16.875 l25.078 0 l0 5.8594 l-25.078 0 l0 -5.8594 z M177.344 32.6562 c-0.78125 -0.15625 -1.5105 -0.3907 -2.1876 -0.7032 c-1.4584 -0.67711 -2.7344 -1.6146 -3.8281 -2.8125 c-1.0416 -1.0938 -1.875 -2.4479 -2.5 -4.0625 c-0.57289 -1.6146 -0.85938 -3.2552 -0.85938 -4.9219 l0 -0.15625 l0 -0.23438 c0 -1.7188 0.28648 -3.3854 0.85938 -5 c0.67711 -1.6666 1.5105 -2.9948 2.5001 -3.9844 c1.0416 -1.1979 2.2916 -2.1094 3.75 -2.7344 c0.88539 -0.41664 1.6406 -0.67703 2.2656 -0.78117 l0 -5.8594 c-1.8229 0.26039 -3.4375 0.70313 -4.8438 1.3281 c-2.2916 0.98961 -4.2448 2.3177 -5.8594 3.9844 s-2.8906 3.6458 -3.8281 5.9374 s-1.4063 4.6875 -1.4063 7.1875 l0 0.15625 l0 0.23438 c0 2.5521 0.46875 4.948 1.4063 7.1876 c0.83336 2.2396 2.0834 4.1927 3.75 5.8594 c1.6666 1.7188 3.6198 3.0469 5.8594 3.9844 c1.4063 0.625 3.0469 1.0677 4.9219 1.3281 l0 -5.9375 z M198.594 20 l0.000076294 -0.23438 c0 -2.5521 -0.46875 -4.948 -1.4063 -7.1876 c-0.9375 -2.2916 -2.2135 -4.2708 -3.8281 -5.9374 c-1.5625 -1.6666 -3.4896 -2.9688 -5.7813 -3.9063 c-1.3021 -0.625 -2.8906 -1.0677 -4.7656 -1.3281 l0 5.9375 l0.9375 0.3125 c0.46875 0.15625 0.83336 0.28648 1.0938 0.39063 c1.4584 0.67711 2.7344 1.6146 3.8281 2.8125 c1.0416 1.0938 1.875 2.4479 2.5 4.0625 c0.57289 1.6146 0.85938 3.2552 0.85938 4.9219 l0 0.15625 l0 0.23438 c0 1.7188 -0.28648 3.3854 -0.85938 5 c-0.67711 1.6666 -1.5105 2.9948 -2.5001 3.9844 c-1.0416 1.1979 -2.2916 2.1094 -3.75 2.7344 c-0.67711 0.3125 -1.3802 0.54688 -2.1094 0.70313 l0 5.9375 c1.5625 -0.20836 3.125 -0.65109 4.6875 -1.3282 c2.1354 -0.88539 4.0885 -2.2135 5.8594 -3.9844 c1.7188 -1.8229 2.9948 -3.802 3.8281 -5.9374 c0.9375 -2.2916 1.4063 -4.6875 1.4063 -7.1875 l0 -0.15625 z M234.609 25 c-0.36461 -0.98961 -0.88531 -1.8488 -1.5624 -2.578 c-0.46875 -0.52086 -1.224 -1.1198 -2.2656 -1.797 c-1.1459 -0.57289 -2.1615 -1.0156 -3.0469 -1.3281 c0.625 -0.36461 1.3021 -0.78125 2.0313 -1.25 c0.72914 -0.625 1.276 -1.224 1.6406 -1.7969 c0.46875 -0.625 0.85938 -1.3802 1.1719 -2.2656 c0.3125 -0.9375 0.46875 -1.9531 0.46875 -3.0469 c0 -2.9166 -1.0938 -5.2344 -3.2813 -6.9531 s-5.1563 -2.5781 -8.9063 -2.5781 l-14.453 0 l0 5.7813 l13.672 0 c1.9791 0 3.5938 0.41664 4.8438 1.25 c1.0938 0.83336 1.6406 2.0313 1.6406 3.5938 c0 1.7709 -0.625 3.0469 -1.875 3.8281 c-1.3021 0.83336 -2.9948 1.25 -5.0782 1.25 l-13.203 0 l0 5.4688 l14.609 0 c2.5 0 4.401 0.44273 5.7031 1.3281 c1.25 0.9375 1.875 2.1875 1.875 3.75 c0 1.6666 -0.625 2.9427 -1.875 3.828 c-1.3021 0.88539 -3.0469 1.3281 -5.2344 1.3281 l-15.078 0 l0 5.7813 l15 0 c2.0313 0 3.9063 -0.23438 5.625 -0.70313 c1.7709 -0.52086 3.2031 -1.1719 4.2969 -1.9531 s2.0313 -1.849 2.8125 -3.2031 c0.625 -1.25 0.9375 -2.7084 0.9375 -4.375 c0 -1.3021 -0.15625 -2.4219 -0.46875 -3.3594 z M264.922 1.4059999999999988 c-2.8646 0 -5.5209 0.4686 -7.9688 1.4061 c-2.3959 0.9375 -4.4792 2.2396 -6.2501 3.9063 c-1.7188 1.5625 -3.0729 3.5416 -4.0625 5.9375 c-0.83336 2.0313 -1.3021 4.2448 -1.4063 6.6406 l0 2.3438 l6.875 0 l0 -2.3438 c0.10414 -1.7709 0.39063 -3.2031 0.85938 -4.2969 c0.625 -1.5104 1.4844 -2.8645 2.5781 -4.0624 c1.3021 -1.1979 2.6563 -2.0833 4.0625 -2.6562 c1.6146 -0.625 3.3855 -0.9375 5.3126 -0.9375 l9.8438 0 l0 -5.9375 l-9.8438 0 z M267.891 18.984 l0.000076294 1.4843 l0.078125 0 c-0.10414 1.6666 -0.41664 3.2031 -0.9375 4.6094 c-0.67711 1.6146 -1.5365 2.9427 -2.5781 3.9844 c-1.1459 1.1459 -2.5 2.0313 -4.0625 2.6563 c-1.6146 0.625 -3.3855 0.9375 -5.3126 0.9375 l-9.8438 0 l0 5.9375 l9.8438 0 c2.8646 0 5.5209 -0.46875 7.9688 -1.4063 c2.3959 -0.9375 4.4792 -2.2396 6.2501 -3.9063 c1.8229 -1.8229 3.177 -3.802 4.0624 -5.9374 c0.9375 -2.0834 1.4063 -4.375 1.4063 -6.875 l0 -1.4844 l-6.875 0 z M303.281 16.875 l0 -15.547 l-6.5625 0 l0 37.344 l6.5625 0 l0 -21.797 z M352.813 27.344 c-0.98961 2.3959 -2.3438 4.375 -4.0625 5.9375 c-1.7709 1.6666 -3.8542 2.9688 -6.2501 3.9063 s-5.0781 1.4063 -8.0469 1.4063 l-8.6719 0 l0 -5.9375 l8.5938 0 c1.9791 0 3.776 -0.3125 5.3906 -0.9375 c1.5625 -0.625 2.9166 -1.5104 4.0625 -2.6563 s2.0313 -2.5 2.6563 -4.0625 s0.9375 -3.2813 0.9375 -5.1563 c0 -1.8229 -0.3125 -3.5156 -0.9375 -5.0781 c-0.625 -1.6146 -1.5104 -2.9427 -2.6563 -3.9844 c-1.0416 -1.0938 -2.3958 -1.9791 -4.0624 -2.6563 c-1.6666 -0.625 -3.4635 -0.9375 -5.3906 -0.9375 l-8.5938 0 l0 -5.9375 l8.6719 0 c2.7604 0 5.4166 0.49477 7.9688 1.4844 c2.3959 0.88539 4.5052 2.2135 6.3281 3.9844 c1.7709 1.6146 3.125 3.5938 4.0625 5.9375 c0.98961 2.3959 1.4844 4.8438 1.4844 7.3438 c0 2.7084 -0.49477 5.1563 -1.4844 7.3438 z M383.281 16.875 l0 -15.547 l-6.5625 0 l0 37.344 l6.5625 0 l0 -21.797 z M430.703 38.5937 l7.0313 0 l-13.594 -37.266 l-7.1094 0 l7.8906 22.266 z M401.9531 38.5937 l6.875 0 l8.125 -19.844 l-3.3594 -8.9063 z M443.8281 38.5937 l6.4844 0 l0 -19.922 l-6.4844 -9.1406 l0 29.063 z M469.766 1.4059999999999988 l0 25.703 l-18.359 -25.703 l-7.0313 0 l26.406 37.188 l5.3906 0 l0 -37.188 l-6.4063 0 z"></path></g>
			</g>
		</svg>
	